<svg width="1657" height="1158" viewBox="0 0 1657 1158" fill="none" xmlns="http://www.w3.org/2000/svg">
<g clip-path="url(#clip0_29_63)">
<path d="M697 164H447V414H697V164Z" fill="#D70033"/>
<path d="M637.144 287.931C632.861 286.514 626.904 285.023 624.503 284.244C622.895 283.695 622.183 282.692 622.183 281.395C622.183 279.643 624.322 278.544 626.89 278.42C631.195 278.547 632.397 280.887 632.637 282.676H647.403C647.53 272.566 639.065 265.729 626.89 265.729C617.91 265.729 611.772 269.145 608.797 274.097C605.453 268.962 598.867 265.729 590.643 265.729C582.004 265.729 576.009 269.065 572.924 273.723C569.387 269.146 563.523 266.237 556.459 266.237H532.532V273.96C529.183 268.858 522.67 265.729 514.486 265.729C501.899 265.742 495.032 272.666 494.39 280.683C494.39 285.678 496.71 290.077 500.474 293.294C502.624 295.149 505.252 296.597 508.194 297.56C512.885 299.228 516.492 300.351 517.739 300.889C520.156 301.909 521.664 302.554 521.664 304.766C521.664 307.186 518.796 308.209 515.994 308.309C512.119 308.263 508.194 306.35 508.264 302.361L492.705 302.341C493.531 312.649 503.694 320.613 515.713 320.84C522.212 320.76 528.393 318.914 532.522 315.117L532.532 319.991H547.857V305.642L547.868 303.073L556.871 303.093C564.794 302.962 571.139 298.978 574.342 293.294C574.582 292.852 574.817 292.391 575.021 291.936C575.486 292.411 575.944 292.872 576.451 293.294C578.654 295.166 581.353 296.577 584.364 297.56C589.062 299.228 592.659 300.351 593.916 300.889C596.333 301.909 597.824 302.554 597.824 304.766C597.824 307.186 594.973 308.209 592.158 308.309C588.283 308.263 584.364 306.35 584.439 302.361L568.869 302.341C569.695 312.649 579.878 320.613 591.883 320.84C599.175 320.76 605.898 318.64 610.254 313.405C614.531 317.851 619.653 320.706 626.773 320.84C638.117 320.706 649.811 315.23 650.005 303.193C649.982 299.385 648.918 295.985 646.591 293.294C644.498 290.869 641.409 289.021 637.144 287.931ZM532.532 286.347L532.522 291.689C530.563 290.071 527.992 288.77 524.742 287.931C520.463 286.514 514.496 285.023 512.092 284.244C510.48 283.695 509.762 282.692 509.762 281.395C509.762 279.643 511.925 278.544 514.485 278.42C518.791 278.547 519.978 280.887 520.229 282.676H532.531V286.347H532.532ZM556.052 290.408H547.857V278.921H556.052C559.154 278.921 561.651 281.505 561.651 284.675C561.651 287.847 559.154 290.408 556.052 290.408ZM628.401 308.309C624.53 308.263 620.595 306.35 620.665 302.361L613.725 302.341C613.541 298.88 612.49 295.791 610.334 293.294C608.255 290.869 605.176 289.014 600.927 287.931C596.625 286.514 590.68 285.023 588.267 284.244C586.659 283.695 585.93 282.692 585.93 281.395C585.93 279.643 588.096 278.544 590.667 278.42C594.96 278.547 596.157 280.887 596.387 282.676H606.815C607.36 286.848 609.559 290.512 612.842 293.294C615.012 295.149 617.66 296.597 620.595 297.56C625.295 299.228 628.899 300.351 630.143 300.889C632.571 301.909 634.075 302.554 634.075 304.766C634.074 307.186 631.202 308.209 628.401 308.309Z" fill="white"/>
<path d="M651.73 274.9C649.614 274.9 647.908 276.601 647.908 278.701C647.908 280.82 649.613 282.522 651.73 282.522C653.823 282.522 655.534 280.82 655.534 278.701C655.534 276.601 653.823 274.9 651.73 274.9ZM651.73 282.067C649.881 282.067 648.369 280.566 648.369 278.701C648.369 276.846 649.881 275.357 651.73 275.357C653.579 275.357 655.076 276.845 655.076 278.701C655.076 280.566 653.578 282.067 651.73 282.067Z" fill="white"/>
<path d="M653.686 277.707C653.686 277.336 653.522 276.958 653.214 276.785C652.89 276.594 652.523 276.571 652.164 276.571H650.309V280.837H650.834V278.871H651.786L653 280.837H653.628L652.335 278.871C653.09 278.837 653.686 278.533 653.686 277.707ZM651.622 278.459H650.834V276.948H652.051C652.576 276.948 653.165 277.029 653.165 277.687C653.164 278.56 652.225 278.459 651.622 278.459Z" fill="white"/>
</g>
<g clip-path="url(#clip1_29_63)">
<path d="M1646.34 925H1475.8C1469.91 925 1465.14 929.771 1465.14 935.657V983.14L1563.98 1012.21L1657 983.14V935.657C1657 929.771 1652.23 925 1646.34 925Z" fill="#41A5EE"/>
<path d="M1657 983.14H1465.14V1041.28L1563.98 1058.72L1657 1041.28V983.14Z" fill="#2B7CD3"/>
<path d="M1465.14 1041.28V1099.42L1558.16 1111.05L1657 1099.42V1041.28H1465.14Z" fill="#185ABD"/>
<path d="M1475.8 1157.56H1646.34C1652.23 1157.56 1657 1152.79 1657 1146.9V1099.42H1465.14V1146.9C1465.14 1152.79 1469.91 1157.56 1475.8 1157.56Z" fill="#103F91"/>
<path opacity="0.1" d="M1535.88 971.512H1465.14V1116.86H1535.88C1541.76 1116.84 1546.52 1112.08 1546.54 1106.2V982.169C1546.52 976.291 1541.76 971.531 1535.88 971.512Z" fill="black"/>
<path opacity="0.2" d="M1530.06 977.326H1465.14V1122.67H1530.06C1535.94 1122.66 1540.7 1117.9 1540.72 1112.02V987.983C1540.7 982.105 1535.94 977.345 1530.06 977.326Z" fill="black"/>
<path opacity="0.2" d="M1530.06 977.326H1465.14V1111.05H1530.06C1535.94 1111.03 1540.7 1106.27 1540.72 1100.39V987.983C1540.7 982.105 1535.94 977.345 1530.06 977.326Z" fill="black"/>
<path opacity="0.2" d="M1524.25 977.326H1465.14V1111.05H1524.25C1530.13 1111.03 1534.89 1106.27 1534.91 1100.39V987.983C1534.89 982.105 1530.13 977.345 1524.25 977.326Z" fill="black"/>
<path d="M1417.66 977.326H1524.25C1530.14 977.326 1534.91 982.097 1534.91 987.983V1094.58C1534.91 1100.46 1530.14 1105.23 1524.25 1105.23H1417.66C1411.77 1105.23 1407 1100.46 1407 1094.58V987.983C1407 982.097 1411.77 977.326 1417.66 977.326Z" fill="url(#paint0_linear_29_63)"/>
<path d="M1450.73 1059.06C1450.94 1060.7 1451.08 1062.13 1451.15 1063.36H1451.39C1451.48 1062.2 1451.68 1060.8 1451.97 1059.16C1452.27 1057.52 1452.53 1056.13 1452.77 1055L1463.98 1006.64H1478.47L1490.1 1054.27C1490.77 1057.24 1491.26 1060.24 1491.55 1063.26H1491.74C1491.96 1060.33 1492.36 1057.42 1492.95 1054.54L1502.22 1006.62H1515.41L1499.12 1075.92H1483.71L1472.66 1030.02C1472.34 1028.7 1471.98 1026.98 1471.58 1024.85C1471.17 1022.73 1470.92 1021.18 1470.83 1020.2H1470.63C1470.51 1021.33 1470.26 1023.01 1469.88 1025.23C1469.51 1027.45 1469.21 1029.09 1468.99 1030.16L1458.6 1075.91H1442.93L1426.55 1006.64H1439.98L1450.08 1055.1C1450.31 1056.09 1450.52 1057.42 1450.73 1059.06Z" fill="white"/>
</g>
<g clip-path="url(#clip2_29_63)">
<path d="M1047.98 650.465L949.14 633.023V761.901C949.14 767.787 953.911 772.558 959.797 772.558H1130.34C1136.23 772.558 1141 767.787 1141 761.901V714.419L1047.98 650.465Z" fill="#185C37"/>
<path d="M1047.98 540H959.797C953.911 540 949.14 544.771 949.14 550.657V598.14L1047.98 656.279L1100.3 673.721L1141 656.279V598.14L1047.98 540Z" fill="#21A366"/>
<path d="M949.14 598.14H1047.98V656.279H949.14V598.14Z" fill="#107C41"/>
<path opacity="0.1" d="M1019.88 586.512H949.14V731.86H1019.88C1025.76 731.841 1030.52 727.081 1030.53 721.203V597.169C1030.52 591.291 1025.76 586.531 1019.88 586.512Z" fill="black"/>
<path opacity="0.2" d="M1014.06 592.326H949.14V737.674H1014.06C1019.94 737.655 1024.7 732.895 1024.72 727.017V602.983C1024.7 597.105 1019.94 592.345 1014.06 592.326Z" fill="black"/>
<path opacity="0.2" d="M1014.06 592.326H949.14V726.046H1014.06C1019.94 726.027 1024.7 721.267 1024.72 715.39V602.983C1024.7 597.105 1019.94 592.345 1014.06 592.326Z" fill="black"/>
<path opacity="0.2" d="M1008.25 592.326H949.14V726.046H1008.25C1014.13 726.027 1018.89 721.267 1018.91 715.39V602.983C1018.89 597.105 1014.13 592.345 1008.25 592.326Z" fill="black"/>
<path d="M901.657 592.326H1008.25C1014.14 592.326 1018.91 597.097 1018.91 602.983V709.575C1018.91 715.461 1014.14 720.232 1008.25 720.232H901.657C895.771 720.233 891 715.461 891 709.576V602.983C891 597.097 895.771 592.326 901.657 592.326Z" fill="url(#paint1_linear_29_63)"/>
<path d="M924.006 690.919L946.424 656.18L925.884 621.634H942.407L953.616 643.727C954.651 645.826 955.36 647.384 955.744 648.413H955.89C956.626 646.738 957.401 645.112 958.215 643.535L970.198 621.645H985.366L964.302 655.988L985.901 690.919H969.762L956.814 666.669C956.204 665.637 955.687 664.553 955.268 663.43H955.076C954.696 664.53 954.193 665.584 953.576 666.57L940.244 690.919H924.006Z" fill="white"/>
<path d="M1130.34 540H1047.98V598.14H1141V550.657C1141 544.771 1136.23 540 1130.34 540Z" fill="#33C481"/>
<path d="M1047.98 656.279H1141V714.419H1047.98V656.279Z" fill="#107C41"/>
</g>
<g clip-path="url(#clip3_29_63)">
<path d="M78.4634 38.6575L81.3141 35.2671C83.8949 37.502 86.4689 38.7682 89.8178 38.7682C92.7446 38.7682 94.592 37.4189 94.592 35.3778V35.3017C94.592 33.3781 93.5126 32.3403 88.51 31.1502C82.774 29.7663 79.5151 28.0711 79.5151 23.1032V23.027C79.5151 18.4119 83.3622 15.2153 88.7176 15.2153C92.2765 15.1439 95.7438 16.3463 98.4944 18.6057L95.9551 22.2244C93.5334 20.4185 91.1116 19.4567 88.6415 19.4567C85.8738 19.4567 84.2547 20.8821 84.2547 22.6534V22.7295C84.2547 24.8053 85.4864 25.7324 90.6411 26.9641C96.3356 28.3479 99.304 30.4237 99.304 34.8519V34.928C99.304 39.9721 95.3393 42.9751 89.6794 42.9751C85.5328 42.9867 81.5319 41.4465 78.4634 38.6575Z" fill="#00BF6F"/>
<path d="M102.432 35.1979V22.2659H107.088V33.8141C107.088 36.9692 108.666 38.782 111.44 38.782C114.215 38.782 116.021 36.8931 116.021 33.731V22.2659H120.678V42.5876H116.021V40.5118C115.213 41.3739 114.225 42.0467 113.127 42.4821C112.029 42.9176 110.848 43.1048 109.669 43.0304C105.089 43.0096 102.432 39.9099 102.432 35.1979Z" fill="#00BF6F"/>
<path d="M125.659 22.2659H130.316V25.6563C131.582 22.6119 133.935 21.7262 137.512 21.8854V26.0369H137.242C133.16 26.0369 130.323 28.763 130.323 34.8796V42.5876H125.666L125.659 22.2659Z" fill="#00BF6F"/>
<path d="M139.172 22.2659H144.175L149.641 36.4087L155.176 22.2659H160.061L151.758 42.7467H147.565L139.172 22.2659Z" fill="#00BF6F"/>
<path d="M160.068 32.4994V32.4233C160.068 26.6112 164.22 21.8369 169.997 21.8369C176.467 21.8369 179.74 26.9156 179.74 32.7693C179.74 33.1913 179.698 33.6134 179.664 34.077H164.725C165.223 37.3844 167.576 39.2387 170.579 39.2387C171.62 39.2474 172.652 39.0354 173.606 38.6169C174.56 38.1983 175.415 37.5825 176.114 36.8101L178.812 39.2179C177.815 40.4491 176.547 41.4331 175.107 42.0933C173.666 42.7534 172.093 43.0718 170.509 43.0235C164.614 43.0442 160.068 38.7751 160.068 32.4994ZM175.118 30.9979C174.813 27.995 173.042 25.6494 169.963 25.6494C167.112 25.6494 165.119 27.8428 164.69 30.9979H175.118Z" fill="#00BF6F"/>
<path d="M204.42 15.6443H209.464L217.664 29.3858L225.863 15.6443H230.879V42.5876H226.174V23.2623L217.664 36.9692H217.512L209.084 23.3384V42.5876H204.427L204.42 15.6443Z" fill="#00BF6F"/>
<path d="M234.242 32.5409V32.4648C234.232 29.5911 235.364 26.831 237.388 24.7918C239.413 22.7527 242.165 21.6014 245.039 21.5913C247.913 21.5812 250.673 22.7131 252.712 24.738C254.751 26.7629 255.903 29.515 255.913 32.3887V32.4648C255.908 33.8794 255.62 35.2787 255.067 36.5808C254.514 37.8828 253.707 39.0614 252.693 40.0474C251.678 41.0333 250.477 41.8069 249.16 42.3227C247.843 42.8385 246.436 43.0862 245.022 43.0512C243.619 43.0872 242.223 42.842 240.917 42.3299C239.61 41.8179 238.42 41.0494 237.415 40.0698C236.41 39.0903 235.612 37.9194 235.067 36.6263C234.522 35.3333 234.241 33.9442 234.242 32.5409V32.5409ZM251.256 32.5409V32.4648C251.256 28.8876 248.675 25.9193 245.029 25.9193C241.382 25.9193 238.905 28.8461 238.905 32.3887V32.4648C238.905 36.0074 241.486 39.0104 245.133 39.0104C248.869 39.0104 251.256 36.042 251.256 32.5409Z" fill="#00BF6F"/>
<path d="M281.963 14.4888H286.62V31.2678L295.048 22.2729H300.708L292.626 30.5759L300.977 42.6222H295.587L289.464 33.8486L286.613 36.8101V42.6222H281.957L281.963 14.4888Z" fill="#00BF6F"/>
<path d="M300.604 32.4994V32.4233C300.604 26.6112 304.755 21.8369 310.533 21.8369C317.002 21.8369 320.275 26.9156 320.275 32.7693C320.275 33.1913 320.233 33.6134 320.199 34.077H305.26C305.758 37.3844 308.111 39.2387 311.114 39.2387C312.156 39.2478 313.188 39.0361 314.142 38.6175C315.096 38.1989 315.95 37.5829 316.649 36.8101L319.348 39.2179C318.35 40.4491 317.082 41.4331 315.642 42.0933C314.202 42.7534 312.628 43.0718 311.045 43.0235C305.143 43.0442 300.604 38.7751 300.604 32.4994ZM315.653 30.9979C315.348 27.995 313.577 25.6494 310.498 25.6494C307.647 25.6494 305.655 27.8428 305.226 30.9979H315.653Z" fill="#00BF6F"/>
<path d="M196.097 22.2659L190.471 36.1251L184.887 22.2659H180.037L188.043 42.1171L183.863 52.4128H188.714L200.947 22.2659H196.097Z" fill="#00BF6F"/>
<path d="M346.658 22.6119C346.174 22.612 345.697 22.7359 345.274 22.9717C344.832 23.2078 344.467 23.5656 344.222 24.0027C343.985 24.4259 343.857 24.9014 343.849 25.3865C343.85 25.8717 343.976 26.3483 344.215 26.7703C344.457 27.2055 344.817 27.563 345.253 27.8013C345.674 28.0442 346.151 28.1721 346.637 28.1721C347.123 28.1721 347.6 28.0442 348.021 27.8013C348.455 27.5623 348.813 27.2048 349.052 26.7703C349.29 26.348 349.415 25.8714 349.415 25.3865C349.415 24.9016 349.29 24.425 349.052 24.0027C348.812 23.5641 348.449 23.2057 348.007 22.9717C347.584 22.7373 347.108 22.6135 346.623 22.6119H346.658ZM346.623 22.0584C347.198 22.0623 347.762 22.2123 348.263 22.4943C348.794 22.7712 349.23 23.2 349.516 23.7259C349.81 24.2324 349.965 24.8077 349.965 25.3934C349.965 25.9791 349.81 26.5544 349.516 27.0609C349.228 27.5824 348.798 28.0118 348.277 28.2995C347.77 28.5857 347.198 28.7359 346.616 28.7354C346.033 28.7331 345.459 28.5831 344.949 28.2995C344.427 28.0121 343.998 27.5826 343.71 27.0609C343.426 26.556 343.276 25.9867 343.274 25.4073C343.273 24.8191 343.428 24.2412 343.724 23.7328C344.01 23.2091 344.443 22.7809 344.97 22.5012C345.474 22.2209 346.04 22.0711 346.616 22.0653" fill="#00BF6F"/>
<path d="M345.24 23.5529H346.907C347.302 23.5311 347.69 23.6653 347.987 23.9265C348.193 24.1445 348.305 24.4356 348.298 24.7361C348.307 24.9991 348.223 25.2569 348.061 25.4644C347.899 25.6719 347.67 25.8157 347.412 25.8708L348.422 27.2547H347.641L346.72 25.9469H345.897V27.2547H345.205L345.24 23.5529ZM346.859 25.3796C347.329 25.3796 347.627 25.1305 347.627 24.7568C347.627 24.3555 347.336 24.1341 346.852 24.1341H345.897V25.3796H346.859Z" fill="#00BF6F"/>
<path d="M336.632 22.2659L331.007 36.1251L325.416 22.2659H320.573L328.578 42.1171L324.399 52.4128H329.249L341.483 22.2659H336.632Z" fill="#00BF6F"/>
<path d="M277.238 29.6556V42.5876H272.581V31.0395C272.56 27.8843 271.011 26.0715 268.243 26.0715C265.475 26.0715 263.662 27.9604 263.662 31.1156V42.5876H258.971V22.2659H263.628V24.3417C264.435 23.4796 265.424 22.8068 266.522 22.3714C267.62 21.9359 268.801 21.7487 269.98 21.8231C274.56 21.8369 277.238 24.916 277.238 29.6556Z" fill="#00BF6F"/>
<path d="M60.3147 27.2201C59.6638 27.2234 59.0157 27.3047 58.3842 27.4623C57.2068 22.83 54.7216 18.6343 51.225 15.3757C47.7284 12.1171 43.3682 9.93335 38.6645 9.0849C38.2355 9.00879 37.8481 8.95343 37.4122 8.89808C37.4814 6.54556 37.5921 3.82632 41.0586 1.37693L40.512 -0.00691223C40.512 -0.00691223 33.7657 2.06884 32.9839 7.8602C32.6448 6.28955 29.5243 4.3245 27.9467 3.95086L27.1718 5.20323C27.8608 5.61927 28.4487 6.18343 28.8927 6.85481C29.3367 7.52619 29.6257 8.28797 29.7388 9.0849V9.0849C25.0348 9.93162 20.6736 12.1138 17.1758 15.3712C13.678 18.6285 11.1913 22.8234 10.0122 27.4553C8.77693 27.1466 7.48618 27.134 6.24515 27.4187C5.00412 27.7035 3.84792 28.2774 2.87079 29.0937C1.89366 29.9101 1.12325 30.9458 0.622342 32.1164C0.121437 33.287 -0.0957855 34.5594 -0.0116206 35.8299C0.0725444 37.1004 0.455716 38.333 1.10666 39.4273C1.75761 40.5216 2.65791 41.4466 3.73419 42.127C4.81047 42.8073 6.03227 43.2237 7.30002 43.3422C8.56776 43.4607 9.84557 43.278 11.0293 42.809C11.7179 44.5303 12.5975 46.1689 13.6517 47.694L20.3564 43.1757L20.301 43.0996C18.43 40.4632 17.3738 37.3356 17.2635 34.1047C17.0628 30.4237 17.9554 26.7634 20.3149 24.6115C25.1583 20.46 30.4445 22.3628 33.7519 26.3206H34.6445C37.9519 22.3628 43.2312 20.4808 48.0815 24.6115C50.4341 26.7634 51.3336 30.4237 51.1329 34.1047C51.0226 37.3356 49.9664 40.4632 48.0954 43.0996L48.04 43.1757L54.7447 47.694C55.7989 46.1689 56.6785 44.5303 57.3671 42.809C58.4721 43.2407 59.6587 43.4236 60.8424 43.3446C62.0262 43.2657 63.1779 42.9269 64.2159 42.3523C65.2538 41.7778 66.1524 40.9815 66.8477 40.0203C67.543 39.0591 68.018 37.9564 68.2388 36.7908C68.4596 35.6252 68.4209 34.4252 68.1253 33.2762C67.8298 32.1273 67.2847 31.0576 66.5288 30.1432C65.7729 29.2288 64.8249 28.4922 63.752 27.9858C62.6792 27.4794 61.5079 27.2156 60.3216 27.2132L60.3147 27.2201ZM7.9226 37.6819C7.31262 37.649 6.73846 37.3835 6.3183 36.9401C5.89814 36.4967 5.66395 35.9091 5.66395 35.2982C5.66395 34.6874 5.89814 34.0997 6.3183 33.6563C6.73846 33.2129 7.31262 32.9474 7.9226 32.9146C8.39907 32.9174 8.86392 33.0619 9.258 33.3297C9.2786 34.5811 9.36405 35.8305 9.51401 37.073C9.07651 37.4648 8.50991 37.6816 7.9226 37.6819V37.6819ZM60.4738 37.6819C59.8865 37.6816 59.3199 37.4648 58.8824 37.073C59.0323 35.8305 59.1178 34.5811 59.1384 33.3297C59.4969 33.0867 59.9149 32.9462 60.3474 32.9232C60.7799 32.9002 61.2104 32.9956 61.5927 33.1992C61.9749 33.4028 62.2944 33.7068 62.5167 34.0785C62.7389 34.4502 62.8556 34.8755 62.854 35.3086C62.8531 35.6212 62.7906 35.9305 62.6702 36.2189C62.5497 36.5074 62.3736 36.7693 62.152 36.9896C61.9303 37.21 61.6674 37.3846 61.3783 37.5034C61.0891 37.6221 60.7795 37.6828 60.4669 37.6819H60.4738Z" fill="#00BF6F"/>
</g>
<path d="M416.736 305.323C418.571 303.26 418.386 300.099 416.323 298.264L382.7 268.356C380.637 266.521 377.476 266.706 375.641 268.769C373.806 270.832 373.991 273.993 376.054 275.828L405.941 302.413L379.356 332.3C377.521 334.363 377.706 337.524 379.769 339.359C381.832 341.194 384.993 341.009 386.828 338.946L416.736 305.323ZM114.21 91.4346C142.269 185.117 174.39 241.983 221.478 273.858C268.546 305.72 329.529 311.89 413.292 306.991L412.708 297.009C329.269 301.888 271.228 295.459 227.084 265.577C182.959 235.708 151.681 181.686 123.79 88.5654L114.21 91.4346Z" fill="#727272"/>
<path d="M854.022 670.323C855.857 668.26 855.672 665.099 853.609 663.264L819.986 633.356C817.922 631.521 814.762 631.706 812.927 633.769C811.091 635.832 811.276 638.993 813.339 640.828L843.227 667.413L816.642 697.3C814.806 699.363 814.991 702.524 817.055 704.359C819.118 706.194 822.278 706.009 824.114 703.946L854.022 670.323ZM551.496 456.435C579.555 550.117 611.676 606.983 658.764 638.858C705.832 670.72 766.815 676.89 850.578 671.991L849.994 662.009C766.555 666.888 708.513 660.459 664.369 630.577C620.245 600.708 588.966 546.686 561.075 453.565L551.496 456.435Z" fill="#727272"/>
<path d="M1363.02 1032.32C1364.86 1030.26 1364.67 1027.1 1362.61 1025.26L1328.99 995.356C1326.92 993.521 1323.76 993.706 1321.93 995.769C1320.09 997.832 1320.28 1000.99 1322.34 1002.83L1352.23 1029.41L1325.64 1059.3C1323.81 1061.36 1323.99 1064.52 1326.06 1066.36C1328.12 1068.19 1331.28 1068.01 1333.11 1065.95L1363.02 1032.32ZM1060.5 818.435C1088.56 912.117 1120.68 968.983 1167.76 1000.86C1214.83 1032.72 1275.82 1038.89 1359.58 1033.99L1358.99 1024.01C1275.56 1028.89 1217.51 1022.46 1173.37 992.577C1129.25 962.708 1097.97 908.686 1070.08 815.565L1060.5 818.435Z" fill="#727272"/>
<defs>
<linearGradient id="paint0_linear_29_63" x1="1429.22" y1="968.998" x2="1512.69" y2="1113.56" gradientUnits="userSpaceOnUse">
<stop stop-color="#2368C4"/>
<stop offset="0.5" stop-color="#1A5DBE"/>
<stop offset="1" stop-color="#1146AC"/>
</linearGradient>
<linearGradient id="paint1_linear_29_63" x1="913.22" y1="583.998" x2="996.687" y2="728.56" gradientUnits="userSpaceOnUse">
<stop stop-color="#18884F"/>
<stop offset="0.5" stop-color="#117E43"/>
<stop offset="1" stop-color="#0B6631"/>
</linearGradient>
<clipPath id="clip0_29_63">
<rect width="250" height="250" fill="white" transform="translate(447 164)"/>
</clipPath>
<clipPath id="clip1_29_63">
<rect width="250" height="232.558" fill="white" transform="translate(1407 925)"/>
</clipPath>
<clipPath id="clip2_29_63">
<rect width="250" height="232.558" fill="white" transform="translate(891 540)"/>
</clipPath>
<clipPath id="clip3_29_63">
<rect width="350" height="52.4197" fill="white"/>
</clipPath>
</defs>
</svg>
