<svg width="1679" height="1278" viewBox="0 0 1679 1278" fill="none" xmlns="http://www.w3.org/2000/svg">
<g clip-path="url(#clip0_29_63)">
<path d="M697 284H447V534H697V284Z" fill="#D70033"/>
<path d="M637.144 407.931C632.861 406.513 626.904 405.022 624.503 404.243C622.895 403.695 622.183 402.692 622.183 401.395C622.183 399.643 624.322 398.543 626.89 398.419C631.195 398.546 632.397 400.887 632.637 402.675H647.403C647.53 392.566 639.065 385.728 626.89 385.728C617.91 385.728 611.772 389.145 608.797 394.096C605.453 388.961 598.867 385.728 590.643 385.728C582.004 385.728 576.009 389.065 572.924 393.722C569.387 389.145 563.523 386.237 556.459 386.237H532.532V393.959C529.183 388.858 522.67 385.728 514.486 385.728C501.899 385.742 495.032 392.666 494.39 400.683C494.39 405.677 496.71 410.077 500.474 413.293C502.624 415.149 505.252 416.596 508.194 417.559C512.885 419.227 516.492 420.35 517.739 420.889C520.156 421.908 521.664 422.554 521.664 424.765C521.664 427.186 518.796 428.209 515.994 428.309C512.119 428.262 508.194 426.35 508.264 422.36L492.705 422.34C493.531 432.649 503.694 440.612 515.713 440.839C522.212 440.759 528.393 438.913 532.522 435.116L532.532 439.99H547.857V425.642L547.868 423.072L556.871 423.092C564.794 422.962 571.139 418.977 574.342 413.293C574.582 412.852 574.817 412.39 575.021 411.936C575.486 412.411 575.944 412.872 576.451 413.293C578.654 415.165 581.353 416.576 584.364 417.559C589.062 419.227 592.659 420.35 593.916 420.889C596.333 421.908 597.824 422.554 597.824 424.765C597.824 427.186 594.973 428.209 592.158 428.309C588.283 428.262 584.364 426.35 584.439 422.36L568.869 422.34C569.695 432.649 579.878 440.612 591.883 440.839C599.175 440.759 605.898 438.64 610.254 433.404C614.531 437.851 619.653 440.706 626.773 440.839C638.117 440.705 649.811 435.229 650.005 423.192C649.982 419.385 648.918 415.984 646.591 413.293C644.498 410.869 641.409 409.021 637.144 407.931ZM532.532 406.346L532.522 411.689C530.563 410.071 527.992 408.77 524.742 407.931C520.463 406.513 514.496 405.022 512.092 404.243C510.48 403.695 509.762 402.692 509.762 401.395C509.762 399.643 511.925 398.543 514.485 398.419C518.791 398.546 519.978 400.887 520.229 402.675H532.531V406.346H532.532ZM556.052 410.408H547.857V398.92H556.052C559.154 398.92 561.651 401.505 561.651 404.674C561.651 407.847 559.154 410.408 556.052 410.408ZM628.401 428.309C624.53 428.262 620.595 426.35 620.665 422.36L613.725 422.34C613.541 418.88 612.49 415.79 610.334 413.293C608.255 410.869 605.176 409.014 600.927 407.931C596.625 406.513 590.68 405.022 588.267 404.243C586.659 403.695 585.93 402.692 585.93 401.395C585.93 399.643 588.096 398.543 590.667 398.419C594.96 398.546 596.157 400.887 596.387 402.675H606.815C607.36 406.848 609.559 410.511 612.842 413.293C615.012 415.149 617.66 416.596 620.595 417.559C625.295 419.227 628.899 420.35 630.143 420.889C632.571 421.908 634.075 422.554 634.075 424.765C634.074 427.186 631.202 428.209 628.401 428.309Z" fill="white"/>
<path d="M651.73 394.899C649.614 394.899 647.908 396.601 647.908 398.7C647.908 400.82 649.613 402.522 651.73 402.522C653.823 402.522 655.534 400.82 655.534 398.7C655.534 396.601 653.823 394.899 651.73 394.899ZM651.73 402.067C649.881 402.067 648.369 400.566 648.369 398.7C648.369 396.845 649.881 395.357 651.73 395.357C653.579 395.357 655.076 396.845 655.076 398.7C655.076 400.566 653.578 402.067 651.73 402.067Z" fill="white"/>
<path d="M653.686 397.707C653.686 397.336 653.522 396.958 653.214 396.785C652.89 396.594 652.523 396.571 652.164 396.571H650.309V400.837H650.834V398.871H651.786L653 400.837H653.628L652.335 398.871C653.09 398.837 653.686 398.533 653.686 397.707ZM651.622 398.459H650.834V396.948H652.051C652.576 396.948 653.165 397.029 653.165 397.687C653.164 398.56 652.225 398.459 651.622 398.459Z" fill="white"/>
</g>
<g clip-path="url(#clip1_29_63)">
<path d="M1646.34 1045H1475.8C1469.91 1045 1465.14 1049.77 1465.14 1055.66V1103.14L1563.98 1132.21L1657 1103.14V1055.66C1657 1049.77 1652.23 1045 1646.34 1045Z" fill="#41A5EE"/>
<path d="M1657 1103.14H1465.14V1161.28L1563.98 1178.72L1657 1161.28V1103.14Z" fill="#2B7CD3"/>
<path d="M1465.14 1161.28V1219.42L1558.16 1231.05L1657 1219.42V1161.28H1465.14Z" fill="#185ABD"/>
<path d="M1475.8 1277.56H1646.34C1652.23 1277.56 1657 1272.79 1657 1266.9V1219.42H1465.14V1266.9C1465.14 1272.79 1469.91 1277.56 1475.8 1277.56Z" fill="#103F91"/>
<path opacity="0.1" d="M1535.88 1091.51H1465.14V1236.86H1535.88C1541.76 1236.84 1546.52 1232.08 1546.54 1226.2V1102.17C1546.52 1096.29 1541.76 1091.53 1535.88 1091.51Z" fill="black"/>
<path opacity="0.2" d="M1530.06 1097.33H1465.14V1242.67H1530.06C1535.94 1242.66 1540.7 1237.9 1540.72 1232.02V1107.98C1540.7 1102.1 1535.94 1097.34 1530.06 1097.33Z" fill="black"/>
<path opacity="0.2" d="M1530.06 1097.33H1465.14V1231.05H1530.06C1535.94 1231.03 1540.7 1226.27 1540.72 1220.39V1107.98C1540.7 1102.1 1535.94 1097.34 1530.06 1097.33Z" fill="black"/>
<path opacity="0.2" d="M1524.25 1097.33H1465.14V1231.05H1524.25C1530.13 1231.03 1534.89 1226.27 1534.91 1220.39V1107.98C1534.89 1102.1 1530.13 1097.34 1524.25 1097.33Z" fill="black"/>
<path d="M1417.66 1097.33H1524.25C1530.14 1097.33 1534.91 1102.1 1534.91 1107.98V1214.58C1534.91 1220.46 1530.14 1225.23 1524.25 1225.23H1417.66C1411.77 1225.23 1407 1220.46 1407 1214.58V1107.98C1407 1102.1 1411.77 1097.33 1417.66 1097.33Z" fill="url(#paint0_linear_29_63)"/>
<path d="M1450.73 1179.06C1450.94 1180.7 1451.08 1182.13 1451.15 1183.36H1451.39C1451.48 1182.2 1451.68 1180.8 1451.97 1179.16C1452.27 1177.52 1452.53 1176.13 1452.77 1175L1463.98 1126.64H1478.47L1490.1 1174.27C1490.77 1177.24 1491.26 1180.24 1491.55 1183.26H1491.74C1491.96 1180.33 1492.36 1177.42 1492.95 1174.54L1502.22 1126.62H1515.41L1499.12 1195.92H1483.71L1472.66 1150.02C1472.34 1148.7 1471.98 1146.98 1471.58 1144.85C1471.17 1142.73 1470.92 1141.18 1470.83 1140.2H1470.63C1470.51 1141.33 1470.26 1143.01 1469.88 1145.23C1469.51 1147.45 1469.21 1149.09 1468.99 1150.16L1458.6 1195.91H1442.93L1426.55 1126.64H1439.98L1450.08 1175.1C1450.31 1176.09 1450.52 1177.42 1450.73 1179.06Z" fill="white"/>
</g>
<g clip-path="url(#clip2_29_63)">
<path d="M1047.98 770.465L949.14 753.023V881.901C949.14 887.787 953.911 892.558 959.797 892.558H1130.34C1136.23 892.558 1141 887.787 1141 881.901V834.418L1047.98 770.465Z" fill="#185C37"/>
<path d="M1047.98 660H959.797C953.911 660 949.14 664.771 949.14 670.657V718.139L1047.98 776.279L1100.3 793.721L1141 776.279V718.139L1047.98 660Z" fill="#21A366"/>
<path d="M949.14 718.139H1047.98V776.279H949.14V718.139Z" fill="#107C41"/>
<path opacity="0.1" d="M1019.88 706.511H949.14V851.86H1019.88C1025.76 851.841 1030.52 847.081 1030.53 841.203V717.168C1030.52 711.291 1025.76 706.531 1019.88 706.511Z" fill="black"/>
<path opacity="0.2" d="M1014.06 712.325H949.14V857.674H1014.06C1019.94 857.655 1024.7 852.895 1024.72 847.017V722.982C1024.7 717.105 1019.94 712.345 1014.06 712.325Z" fill="black"/>
<path opacity="0.2" d="M1014.06 712.325H949.14V846.046H1014.06C1019.94 846.027 1024.7 841.267 1024.72 835.389V722.982C1024.7 717.105 1019.94 712.345 1014.06 712.325Z" fill="black"/>
<path opacity="0.2" d="M1008.25 712.325H949.14V846.046H1008.25C1014.13 846.027 1018.89 841.267 1018.91 835.389V722.982C1018.89 717.105 1014.13 712.345 1008.25 712.325Z" fill="black"/>
<path d="M901.657 712.325H1008.25C1014.14 712.325 1018.91 717.097 1018.91 722.982V829.575C1018.91 835.461 1014.14 840.232 1008.25 840.232H901.657C895.771 840.232 891 835.461 891 829.575V722.982C891 717.097 895.771 712.325 901.657 712.325Z" fill="url(#paint1_linear_29_63)"/>
<path d="M924.006 810.919L946.424 776.18L925.884 741.634H942.407L953.616 763.727C954.651 765.825 955.36 767.384 955.744 768.413H955.89C956.626 766.738 957.401 765.112 958.215 763.535L970.198 741.645H985.366L964.302 775.988L985.901 810.918H969.762L956.814 786.668C956.204 785.637 955.687 784.553 955.268 783.43H955.076C954.696 784.53 954.193 785.583 953.576 786.57L940.244 810.919H924.006Z" fill="white"/>
<path d="M1130.34 660H1047.98V718.139H1141V670.657C1141 664.771 1136.23 660 1130.34 660Z" fill="#33C481"/>
<path d="M1047.98 776.279H1141V834.418H1047.98V776.279Z" fill="#107C41"/>
</g>
<g clip-path="url(#clip3_29_63)">
<path d="M78.4634 158.657L81.3141 155.267C83.8949 157.502 86.4689 158.768 89.8178 158.768C92.7446 158.768 94.592 157.419 94.592 155.378V155.302C94.592 153.378 93.5126 152.34 88.51 151.15C82.774 149.766 79.5151 148.071 79.5151 143.103V143.027C79.5151 138.412 83.3622 135.215 88.7176 135.215C92.2765 135.144 95.7438 136.346 98.4944 138.606L95.9551 142.224C93.5334 140.418 91.1116 139.457 88.6415 139.457C85.8738 139.457 84.2547 140.882 84.2547 142.653V142.729C84.2547 144.805 85.4864 145.732 90.6411 146.964C96.3356 148.348 99.304 150.423 99.304 154.852V154.928C99.304 159.972 95.3393 162.975 89.6794 162.975C85.5328 162.987 81.5319 161.446 78.4634 158.657Z" fill="#00BF6F"/>
<path d="M102.432 155.198V142.266H107.088V153.814C107.088 156.969 108.666 158.782 111.44 158.782C114.215 158.782 116.021 156.893 116.021 153.731V142.266H120.678V162.587H116.021V160.512C115.213 161.374 114.225 162.047 113.127 162.482C112.029 162.917 110.848 163.105 109.669 163.03C105.089 163.009 102.432 159.91 102.432 155.198Z" fill="#00BF6F"/>
<path d="M125.659 142.266H130.316V145.656C131.582 142.612 133.935 141.726 137.512 141.885V146.037H137.242C133.16 146.037 130.323 148.763 130.323 154.879V162.587H125.666L125.659 142.266Z" fill="#00BF6F"/>
<path d="M139.172 142.266H144.175L149.641 156.409L155.176 142.266H160.061L151.758 162.747H147.565L139.172 142.266Z" fill="#00BF6F"/>
<path d="M160.068 152.499V152.423C160.068 146.611 164.22 141.837 169.997 141.837C176.467 141.837 179.74 146.915 179.74 152.769C179.74 153.191 179.698 153.613 179.664 154.077H164.725C165.223 157.384 167.576 159.239 170.579 159.239C171.62 159.247 172.652 159.035 173.606 158.617C174.56 158.198 175.415 157.582 176.114 156.81L178.812 159.218C177.815 160.449 176.547 161.433 175.107 162.093C173.666 162.753 172.093 163.072 170.509 163.023C164.614 163.044 160.068 158.775 160.068 152.499ZM175.118 150.998C174.813 147.995 173.042 145.649 169.963 145.649C167.112 145.649 165.119 147.843 164.69 150.998H175.118Z" fill="#00BF6F"/>
<path d="M204.42 135.644H209.464L217.664 149.386L225.863 135.644H230.879V162.587H226.174V143.262L217.664 156.969H217.512L209.084 143.338V162.587H204.427L204.42 135.644Z" fill="#00BF6F"/>
<path d="M234.242 152.541V152.465C234.232 149.591 235.364 146.831 237.388 144.792C239.413 142.753 242.165 141.601 245.039 141.591C247.913 141.581 250.673 142.713 252.712 144.738C254.751 146.763 255.903 149.515 255.913 152.389V152.465C255.908 153.879 255.62 155.279 255.067 156.581C254.514 157.883 253.707 159.061 252.693 160.047C251.678 161.033 250.477 161.807 249.16 162.323C247.843 162.838 246.436 163.086 245.022 163.051C243.619 163.087 242.223 162.842 240.917 162.33C239.61 161.818 238.42 161.049 237.415 160.07C236.41 159.09 235.612 157.919 235.067 156.626C234.522 155.333 234.241 153.944 234.242 152.541V152.541ZM251.256 152.541V152.465C251.256 148.887 248.675 145.919 245.029 145.919C241.382 145.919 238.905 148.846 238.905 152.389V152.465C238.905 156.007 241.486 159.01 245.133 159.01C248.869 159.01 251.256 156.042 251.256 152.541Z" fill="#00BF6F"/>
<path d="M281.963 134.489H286.62V151.268L295.048 142.273H300.708L292.626 150.576L300.977 162.622H295.587L289.464 153.848L286.613 156.81V162.622H281.957L281.963 134.489Z" fill="#00BF6F"/>
<path d="M300.604 152.499V152.423C300.604 146.611 304.755 141.837 310.533 141.837C317.002 141.837 320.275 146.915 320.275 152.769C320.275 153.191 320.233 153.613 320.199 154.077H305.26C305.758 157.384 308.111 159.239 311.114 159.239C312.156 159.248 313.188 159.036 314.142 158.617C315.096 158.199 315.95 157.583 316.649 156.81L319.348 159.218C318.35 160.449 317.082 161.433 315.642 162.093C314.202 162.753 312.628 163.072 311.045 163.023C305.143 163.044 300.604 158.775 300.604 152.499ZM315.653 150.998C315.348 147.995 313.577 145.649 310.498 145.649C307.647 145.649 305.655 147.843 305.226 150.998H315.653Z" fill="#00BF6F"/>
<path d="M196.097 142.266L190.471 156.125L184.887 142.266H180.037L188.043 162.117L183.863 172.413H188.714L200.947 142.266H196.097Z" fill="#00BF6F"/>
<path d="M346.658 142.612C346.174 142.612 345.697 142.736 345.274 142.972C344.832 143.208 344.467 143.565 344.222 144.003C343.985 144.426 343.857 144.901 343.849 145.386C343.85 145.872 343.976 146.348 344.215 146.77C344.457 147.205 344.817 147.563 345.253 147.801C345.674 148.044 346.151 148.172 346.637 148.172C347.123 148.172 347.6 148.044 348.021 147.801C348.455 147.562 348.813 147.205 349.052 146.77C349.29 146.348 349.415 145.871 349.415 145.386C349.415 144.901 349.29 144.425 349.052 144.003C348.812 143.564 348.449 143.206 348.007 142.972C347.584 142.737 347.108 142.613 346.623 142.612H346.658ZM346.623 142.058C347.198 142.062 347.762 142.212 348.263 142.494C348.794 142.771 349.23 143.2 349.516 143.726C349.81 144.232 349.965 144.808 349.965 145.393C349.965 145.979 349.81 146.554 349.516 147.061C349.228 147.582 348.798 148.012 348.277 148.299C347.77 148.586 347.198 148.736 346.616 148.735C346.033 148.733 345.459 148.583 344.949 148.299C344.427 148.012 343.998 147.582 343.71 147.061C343.426 146.556 343.276 145.987 343.274 145.407C343.273 144.819 343.428 144.241 343.724 143.733C344.01 143.209 344.443 142.781 344.97 142.501C345.474 142.221 346.04 142.071 346.616 142.065" fill="#00BF6F"/>
<path d="M345.24 143.553H346.907C347.302 143.531 347.69 143.665 347.987 143.926C348.193 144.144 348.305 144.435 348.298 144.736C348.307 144.999 348.223 145.257 348.061 145.464C347.899 145.672 347.67 145.816 347.412 145.871L348.422 147.255H347.641L346.72 145.947H345.897V147.255H345.205L345.24 143.553ZM346.859 145.379C347.329 145.379 347.627 145.13 347.627 144.757C347.627 144.355 347.336 144.134 346.852 144.134H345.897V145.379H346.859Z" fill="#00BF6F"/>
<path d="M336.632 142.266L331.007 156.125L325.416 142.266H320.573L328.578 162.117L324.399 172.413H329.249L341.483 142.266H336.632Z" fill="#00BF6F"/>
<path d="M277.238 149.655V162.587H272.581V151.039C272.56 147.884 271.011 146.071 268.243 146.071C265.475 146.071 263.662 147.96 263.662 151.115V162.587H258.971V142.266H263.628V144.342C264.435 143.479 265.424 142.807 266.522 142.371C267.62 141.936 268.801 141.749 269.98 141.823C274.56 141.837 277.238 144.916 277.238 149.655Z" fill="#00BF6F"/>
<path d="M60.3147 147.22C59.6638 147.223 59.0157 147.305 58.3842 147.462C57.2068 142.83 54.7216 138.634 51.225 135.376C47.7284 132.117 43.3682 129.933 38.6645 129.085C38.2355 129.009 37.8481 128.953 37.4122 128.898C37.4814 126.545 37.5921 123.826 41.0586 121.377L40.512 119.993C40.512 119.993 33.7657 122.069 32.9839 127.86C32.6448 126.289 29.5243 124.324 27.9467 123.951L27.1718 125.203C27.8608 125.619 28.4487 126.183 28.8927 126.855C29.3367 127.526 29.6257 128.288 29.7388 129.085V129.085C25.0348 129.931 20.6736 132.114 17.1758 135.371C13.678 138.628 11.1913 142.823 10.0122 147.455C8.77693 147.146 7.48618 147.134 6.24515 147.419C5.00412 147.703 3.84792 148.277 2.87079 149.094C1.89366 149.91 1.12325 150.946 0.622342 152.116C0.121437 153.287 -0.0957855 154.559 -0.0116206 155.83C0.0725444 157.1 0.455716 158.333 1.10666 159.427C1.75761 160.521 2.65791 161.446 3.73419 162.127C4.81047 162.807 6.03227 163.224 7.30002 163.342C8.56776 163.461 9.84557 163.278 11.0293 162.809C11.7179 164.53 12.5975 166.169 13.6517 167.694L20.3564 163.176L20.301 163.099C18.43 160.463 17.3738 157.335 17.2635 154.105C17.0628 150.424 17.9554 146.763 20.3149 144.611C25.1583 140.46 30.4445 142.363 33.7519 146.32H34.6445C37.9519 142.363 43.2312 140.481 48.0815 144.611C50.4341 146.763 51.3336 150.424 51.1329 154.105C51.0226 157.335 49.9664 160.463 48.0954 163.099L48.04 163.176L54.7447 167.694C55.7989 166.169 56.6785 164.53 57.3671 162.809C58.4721 163.241 59.6587 163.423 60.8424 163.344C62.0262 163.266 63.1779 162.927 64.2159 162.352C65.2538 161.778 66.1524 160.981 66.8477 160.02C67.543 159.059 68.018 157.956 68.2388 156.791C68.4596 155.625 68.4209 154.425 68.1253 153.276C67.8298 152.127 67.2847 151.057 66.5288 150.143C65.7729 149.229 64.8249 148.492 63.752 147.986C62.6792 147.479 61.5079 147.215 60.3216 147.213L60.3147 147.22ZM7.9226 157.682C7.31262 157.649 6.73846 157.383 6.3183 156.94C5.89814 156.497 5.66395 155.909 5.66395 155.298C5.66395 154.687 5.89814 154.1 6.3183 153.656C6.73846 153.213 7.31262 152.947 7.9226 152.914C8.39907 152.917 8.86392 153.062 9.258 153.33C9.2786 154.581 9.36405 155.83 9.51401 157.073C9.07651 157.465 8.50991 157.681 7.9226 157.682V157.682ZM60.4738 157.682C59.8865 157.681 59.3199 157.465 58.8824 157.073C59.0323 155.83 59.1178 154.581 59.1384 153.33C59.4969 153.087 59.9149 152.946 60.3474 152.923C60.7799 152.9 61.2104 152.995 61.5927 153.199C61.9749 153.403 62.2944 153.707 62.5167 154.078C62.7389 154.45 62.8556 154.875 62.854 155.308C62.8531 155.621 62.7906 155.93 62.6702 156.219C62.5497 156.507 62.3736 156.769 62.152 156.989C61.9303 157.21 61.6674 157.384 61.3783 157.503C61.0891 157.622 60.7795 157.683 60.4669 157.682H60.4738Z" fill="#00BF6F"/>
</g>
<path d="M416.736 425.323C418.571 423.259 418.386 420.099 416.323 418.264L382.7 388.356C380.637 386.52 377.476 386.705 375.641 388.769C373.806 390.832 373.991 393.992 376.054 395.828L405.941 422.412L379.356 452.3C377.521 454.363 377.706 457.523 379.769 459.359C381.832 461.194 384.993 461.009 386.828 458.946L416.736 425.323ZM114.21 211.434C142.269 305.116 174.39 361.983 221.478 393.858C268.546 425.719 329.529 431.889 413.292 426.991L412.708 417.008C329.269 421.887 271.228 415.459 227.084 385.577C182.959 355.708 151.681 301.686 123.79 208.565L114.21 211.434Z" fill="#727272"/>
<path d="M854.022 790.323C855.857 788.26 855.672 785.099 853.609 783.264L819.986 753.356C817.922 751.521 814.762 751.706 812.927 753.769C811.091 755.832 811.276 758.993 813.339 760.828L843.227 787.413L816.642 817.3C814.806 819.363 814.991 822.524 817.055 824.359C819.118 826.194 822.278 826.009 824.114 823.946L854.022 790.323ZM551.496 576.435C579.555 670.117 611.676 726.983 658.764 758.858C705.832 790.72 766.815 796.89 850.578 791.991L849.994 782.009C766.555 786.888 708.513 780.459 664.369 750.577C620.245 720.708 588.966 666.686 561.075 573.565L551.496 576.435Z" fill="#727272"/>
<path d="M1363.02 1152.32C1364.86 1150.26 1364.67 1147.1 1362.61 1145.27L1328.99 1115.36C1326.92 1113.52 1323.76 1113.71 1321.93 1115.77C1320.09 1117.83 1320.28 1120.99 1322.34 1122.83L1352.23 1149.41L1325.64 1179.3C1323.81 1181.36 1323.99 1184.53 1326.06 1186.36C1328.12 1188.2 1331.28 1188.01 1333.11 1185.95L1363.02 1152.32ZM1060.5 938.436C1088.56 1032.12 1120.68 1088.98 1167.76 1120.86C1214.83 1152.72 1275.82 1158.89 1359.58 1153.99L1358.99 1144.01C1275.56 1148.89 1217.51 1142.46 1173.37 1112.58C1129.25 1082.71 1097.97 1028.69 1070.08 935.567L1060.5 938.436Z" fill="#727272"/>
<path d="M378.089 137.386C375.745 138.846 375.03 141.93 376.491 144.274L400.294 182.463C401.755 184.806 404.839 185.522 407.182 184.061C409.526 182.6 410.241 179.516 408.781 177.173L387.622 143.227L421.567 122.068C423.911 120.608 424.627 117.524 423.166 115.18C421.705 112.837 418.621 112.121 416.278 113.582L378.089 137.386ZM1575.21 1010.4C1389.69 720.655 1233.54 535.081 1052.47 405.51C871.377 275.919 665.755 202.635 381.864 136.758L379.604 146.499C662.999 212.261 867.129 285.176 1046.65 413.642C1226.21 542.13 1381.54 726.472 1566.79 1015.8L1575.21 1010.4Z" fill="#FF7400"/>
<defs>
<linearGradient id="paint0_linear_29_63" x1="1429.22" y1="1089" x2="1512.69" y2="1233.56" gradientUnits="userSpaceOnUse">
<stop stop-color="#2368C4"/>
<stop offset="0.5" stop-color="#1A5DBE"/>
<stop offset="1" stop-color="#1146AC"/>
</linearGradient>
<linearGradient id="paint1_linear_29_63" x1="913.22" y1="703.998" x2="996.687" y2="848.56" gradientUnits="userSpaceOnUse">
<stop stop-color="#18884F"/>
<stop offset="0.5" stop-color="#117E43"/>
<stop offset="1" stop-color="#0B6631"/>
</linearGradient>
<clipPath id="clip0_29_63">
<rect width="250" height="250" fill="white" transform="translate(447 284)"/>
</clipPath>
<clipPath id="clip1_29_63">
<rect width="250" height="232.558" fill="white" transform="translate(1407 1045)"/>
</clipPath>
<clipPath id="clip2_29_63">
<rect width="250" height="232.558" fill="white" transform="translate(891 660)"/>
</clipPath>
<clipPath id="clip3_29_63">
<rect width="350" height="52.4197" fill="white" transform="translate(0 120)"/>
</clipPath>
</defs>
</svg>
